<?xml version="1.0" standalone="no"?>
<!DOCTYPE svg PUBLIC "-//W3C//DTD SVG 20010904//EN"
 "http://www.w3.org/TR/2001/REC-SVG-20010904/DTD/svg10.dtd">
<svg version="1.0" xmlns="http://www.w3.org/2000/svg"
 width="1280.000000pt" height="1110.000000pt" viewBox="0 0 1280.000000 1110.000000"
 preserveAspectRatio="xMidYMid meet">
<metadata>
Created by potrace 1.15, written by Peter Selinger 2001-2017
</metadata>
<g transform="translate(0.000000,1110.000000) scale(0.100000,-0.100000)"
fill="#000000" stroke="none">
<path d="M10650 10853 c-986 -101 -1815 -544 -2488 -1330 -58 -68 -107 -123
-109 -123 -2 0 -72 30 -156 66 -928 402 -1785 637 -2627 719 -226 22 -721 31
-940 16 -1021 -69 -1855 -415 -2460 -1021 -387 -387 -615 -838 -696 -1375 -22
-146 -25 -511 -6 -655 89 -669 385 -1230 928 -1761 680 -663 1670 -1187 2939
-1555 204 -60 689 -184 717 -184 9 0 20 -5 23 -10 7 -11 -216 -451 -312 -618
-57 -100 -134 -215 -175 -265 l-23 -28 -180 45 c-339 84 -635 138 -960 173
-201 21 -730 24 -915 5 -701 -73 -1225 -268 -1655 -615 -91 -74 -315 -300
-345 -349 -24 -39 -29 -173 -8 -201 17 -21 172 -93 316 -146 376 -138 904
-236 1372 -256 74 -3 184 -7 244 -10 148 -6 542 11 712 30 664 75 1200 263
1644 578 47 33 94 69 106 79 21 18 23 18 175 -48 746 -322 1412 -523 1994
-604 1024 -141 2010 156 2731 822 604 558 960 1279 1045 2116 15 150 6 630
-15 777 -127 888 -530 1706 -1255 2545 -158 183 -561 586 -752 753 -179 156
-362 306 -536 440 l-132 102 45 85 c117 217 271 427 449 609 308 316 643 521
1095 671 80 26 198 60 262 75 l118 28 55 58 55 58 0 98 c0 111 0 111 -78 172
-56 43 -79 47 -202 34z m-5095 -1222 c686 -83 1322 -266 2020 -580 99 -45 183
-85 188 -90 5 -5 -31 -93 -78 -197 -118 -256 -248 -570 -331 -799 -37 -104
-69 -192 -71 -194 -1 -2 -20 3 -40 11 -519 214 -819 310 -1215 388 -907 181
-1847 83 -2602 -270 -61 -28 -111 -58 -120 -72 -8 -12 -22 -51 -32 -84 -17
-61 -16 -61 11 -145 15 -46 35 -92 44 -101 9 -10 52 -25 98 -34 l81 -17 149
56 c890 331 1892 329 2923 -5 221 -72 520 -187 526 -203 8 -20 -283 -957 -482
-1555 -259 -772 -597 -1640 -640 -1640 -48 0 -516 126 -799 215 -469 148 -966
360 -1335 570 -186 106 -449 283 -610 411 -152 122 -432 396 -534 524 -283
355 -451 747 -495 1152 -23 206 -8 534 34 758 146 777 690 1413 1475 1723 262
103 537 164 905 201 22 2 200 3 395 1 289 -2 388 -7 535 -24z m3390 -1376
c786 -627 1350 -1466 1580 -2350 172 -664 147 -1444 -66 -2028 -289 -791 -937
-1390 -1764 -1630 -309 -90 -609 -128 -1000 -128 -303 -1 -499 19 -810 82
-231 47 -638 170 -838 254 l-37 15 119 153 c179 229 359 479 508 705 119 179
138 203 156 198 51 -14 556 -19 702 -7 557 46 985 198 1325 472 289 232 474
538 549 904 119 579 -38 1150 -460 1675 -147 183 -423 446 -640 608 l-56 42
34 113 c84 281 219 659 339 954 31 76 60 148 65 161 8 22 11 21 95 -40 47 -35
137 -103 199 -153z m-813 -1624 c278 -224 486 -477 617 -751 111 -232 145
-373 145 -605 0 -171 -14 -271 -55 -400 -58 -183 -147 -323 -296 -466 -227
-219 -531 -350 -928 -400 -96 -12 -559 -18 -570 -7 -3 3 21 56 54 119 255 486
583 1373 841 2269 69 241 91 310 98 310 4 0 46 -31 94 -69z m-3702 -4225 c120
-17 370 -63 376 -69 2 -2 -46 -36 -107 -76 -335 -223 -732 -357 -1200 -407
-186 -20 -553 -22 -694 -5 -107 14 -269 45 -323 62 l-32 11 42 35 c81 68 254
176 383 239 221 107 477 183 735 219 142 19 655 14 820 -9z"/>
</g>
</svg>
