<?xml version="1.0" standalone="no"?>
<!DOCTYPE svg PUBLIC "-//W3C//DTD SVG 20010904//EN"
 "http://www.w3.org/TR/2001/REC-SVG-20010904/DTD/svg10.dtd">
<svg version="1.0" xmlns="http://www.w3.org/2000/svg"
 width="1280.000000pt" height="1280.000000pt" viewBox="0 0 1280.000000 1280.000000"
 preserveAspectRatio="xMidYMid meet">
<metadata>
Created by potrace 1.15, written by Peter Selinger 2001-2017
</metadata>
<g transform="translate(0.000000,1280.000000) scale(0.100000,-0.100000)"
fill="#000000" stroke="none">
<path d="M5600 10983 c-401 -39 -673 -112 -979 -264 -275 -136 -488 -292 -716
-525 l-90 -92 -135 -17 c-761 -96 -1446 -395 -2045 -894 -135 -112 -367 -350
-482 -493 -344 -429 -599 -944 -729 -1473 -85 -344 -109 -564 -109 -990 0
-434 28 -687 116 -1045 250 -1021 861 -1877 1719 -2410 480 -298 971 -468
1535 -531 148 -17 579 -17 735 -1 481 51 917 180 1360 403 548 275 973 639
1327 1135 224 313 384 638 529 1069 146 439 233 800 456 1892 21 104 30 118
41 63 10 -48 82 -117 163 -156 103 -49 195 -67 334 -62 l114 3 39 -64 c53 -87
95 -197 120 -311 19 -85 21 -127 21 -405 0 -262 -3 -335 -22 -476 -29 -222
-65 -425 -113 -649 -250 -1160 -296 -1722 -174 -2130 98 -327 318 -606 580
-735 149 -73 230 -90 430 -90 127 0 192 5 255 19 150 33 290 76 447 138 150
59 153 61 164 97 10 33 7 44 -29 124 l-41 87 -42 -15 c-171 -61 -338 -89 -438
-75 -118 17 -178 45 -251 119 -106 106 -163 254 -191 492 -15 131 -6 604 15
769 8 63 46 355 85 647 86 647 101 814 101 1109 1 598 -128 955 -473 1310 -71
74 -128 136 -126 138 2 1 45 24 94 51 244 130 360 238 535 501 195 294 273
459 449 959 165 465 220 604 333 829 205 409 457 714 685 830 98 49 232 69
315 46 46 -13 93 -66 160 -183 120 -211 272 -306 468 -295 95 6 165 36 242
107 72 66 124 145 156 235 21 60 24 83 20 166 -3 78 -9 105 -32 153 -58 120
-190 212 -366 252 -114 27 -368 32 -505 10 -589 -91 -1106 -557 -1430 -1287
-30 -69 -139 -355 -241 -635 -102 -279 -205 -549 -228 -599 -60 -126 -195
-360 -273 -471 -154 -222 -351 -380 -584 -467 l-45 -17 -81 55 c-152 105 -289
156 -415 156 -83 0 -130 -21 -183 -82 -31 -37 -36 -39 -31 -18 3 14 40 180 81
370 188 855 275 1140 454 1499 64 127 164 307 179 323 4 4 52 -4 107 -18 250
-61 494 -69 707 -24 307 64 585 239 711 448 61 100 81 172 81 297 1 99 -2 116
-26 167 -91 195 -301 284 -588 249 -355 -44 -577 -173 -1043 -606 l-148 -137
-41 18 c-73 33 -172 108 -573 436 -568 462 -630 508 -880 639 -346 182 -707
291 -1084 329 -95 9 -398 11 -481 3z m305 -314 c372 -45 635 -164 1305 -591
254 -161 476 -291 815 -473 256 -138 413 -225 434 -241 2 -2 -73 -117 -166
-256 -361 -541 -492 -798 -735 -1443 -91 -242 -372 -1080 -643 -1920 -389
-1202 -670 -1785 -1102 -2286 -109 -126 -348 -360 -458 -448 -312 -251 -674
-409 -1090 -477 -154 -25 -545 -30 -720 -10 -831 96 -1604 559 -2151 1290
-723 963 -944 2191 -608 3363 111 388 313 815 538 1137 174 249 464 558 696
742 389 308 826 545 1230 667 121 37 336 84 345 76 2 -3 -26 -66 -63 -140
-418 -830 -382 -1763 96 -2484 167 -252 352 -437 607 -605 590 -390 1317 -424
1942 -90 109 58 268 163 368 243 38 31 70 55 72 53 1 -1 -13 -62 -32 -135
-217 -819 -742 -1488 -1440 -1831 -616 -303 -1307 -289 -1833 38 -255 159
-505 420 -630 660 -206 395 -243 809 -123 1391 18 87 18 90 -1 119 -16 26 -28
31 -110 46 -50 9 -95 13 -99 9 -4 -4 -21 -73 -38 -153 -121 -589 -86 -1023
119 -1445 97 -200 213 -367 370 -529 317 -328 737 -542 1225 -623 154 -25 531
-25 695 1 411 64 809 233 1145 485 127 96 334 297 438 426 362 449 579 1024
652 1727 8 81 15 168 15 193 0 36 9 58 43 113 124 192 259 468 343 699 46 127
114 362 114 392 0 12 -29 25 -105 47 -58 17 -108 28 -110 24 -3 -4 -40 -106
-84 -226 -95 -261 -158 -414 -196 -480 l-29 -49 -33 160 c-90 435 -205 737
-391 1021 -349 533 -877 926 -1527 1137 -234 76 -458 119 -695 133 l-114 7 45
40 c241 215 541 378 834 451 229 58 579 76 840 45z m4165 -620 c136 -29 177
-159 100 -315 -77 -157 -330 -297 -615 -341 -170 -26 -503 -4 -547 36 -13 12
124 184 237 297 191 191 376 291 605 327 54 9 172 6 220 -4z m-5629 -204 c485
-56 964 -256 1344 -559 251 -201 537 -554 670 -830 96 -197 167 -445 199 -698
19 -144 40 -491 32 -523 -9 -37 -257 -280 -373 -368 -254 -190 -512 -301 -795
-343 -150 -22 -430 -15 -566 15 -255 55 -481 163 -713 343 -491 379 -773 1018
-745 1688 16 389 97 666 304 1040 36 63 84 145 108 183 l44 67 182 0 c101 0
240 -7 309 -15z"/>
</g>
</svg>
